<svg width="31" height="31" viewBox="0 0 31 31" fill="none" xmlns="http://www.w3.org/2000/svg">
  <!-- Official source artwork cached from https://www.ebrd.com/content/dam/ebrd_dxp/background-images/Vector.svg on 2026-09-17. -->
<path d="M23.8082 3.25005C21.5885 2.12974 18.5365 1.7016 16.1105 2.72914C11.0806 4.92695 9.30199 10.4072 9.25219 15.5092C9.34467 18.3992 10.113 21.018 11.5644 23.3157C12.5035 22.5808 12.9303 21.5175 13.3856 20.5328C14.0686 18.806 14.4386 16.9649 14.403 14.9669C14.5595 11.1921 15.9824 7.03199 19.7103 5.41218C22.5774 4.34182 25.4659 5.59057 27.4223 7.8526C29.7914 10.714 30.759 14.8171 29.7203 18.5134C29.08 21.3249 26.9741 24.5788 23.9861 25.3494C22.5348 25.7633 20.8344 25.5278 19.5609 24.8214C18.8068 26.0202 17.825 27.1762 16.6725 28.0182V28.0467C18.8495 29.0386 21.7522 28.8602 23.8296 27.7042C19.9878 30.5871 13.9761 31.3649 9.42293 29.4525C8.29175 28.9887 7.18902 28.4035 6.17166 27.6685C8.55498 29.0172 12.2829 29.3883 14.7872 27.8541C18.8637 25.4065 20.5143 20.9324 20.7633 16.4868C20.9269 13.183 20.0661 10.1931 18.4724 7.60999C17.4978 8.38778 17.0424 9.49382 16.5942 10.5356C15.8543 12.3909 15.584 14.4175 15.6125 16.5582C15.3279 20.0618 13.8694 23.8795 10.4687 25.4565C7.98583 26.5268 5.19699 25.5778 3.29744 23.7153C0.174226 20.6612 -0.793331 15.5877 0.665119 11.449C1.39079 8.97291 3.45396 6.19711 6.0934 5.56917C7.49493 5.14816 9.20239 5.40504 10.4616 6.09007C11.1944 4.91981 12.2189 3.76382 13.3643 2.96462V2.93608C11.294 1.98703 8.33443 2.1226 6.31394 3.2001C9.85691 0.638372 15.2212 -0.24646 19.5823 1.18069C21.0621 1.67305 22.4921 2.30813 23.8011 3.23578L23.8082 3.25005Z" fill="white"/>
</svg>
